<mxfile host="app.diagrams.net" modified="2024-06-28T07:34:30.528Z" agent="Mozilla/5.0 (Windows NT 10.0; Win64; x64) AppleWebKit/537.36 (KHTML, like Gecko) Chrome/126.0.0.0 Safari/537.36" etag="0aW1EUjT5OTEbIfUoMRi" version="24.6.4" type="device">
  <diagram name="Page-1" id="2a216829-ef6e-dabb-86c1-c78162f3ba2b">
    <mxGraphModel dx="1434" dy="746" grid="1" gridSize="10" guides="1" tooltips="1" connect="1" arrows="1" fold="1" page="1" pageScale="1" pageWidth="850" pageHeight="1100" background="none" math="0" shadow="0">
      <root>
        <mxCell id="0" />
        <mxCell id="1" parent="0" />
        <mxCell id="zhi4c-E4_3L_QKvFbCK9-29" value="" style="sketch=0;pointerEvents=1;shadow=0;dashed=0;html=1;strokeColor=none;fillColor=#505050;labelPosition=center;verticalLabelPosition=bottom;verticalAlign=top;outlineConnect=0;align=center;shape=mxgraph.office.concepts.document_blank;container=0;" parent="1" vertex="1">
          <mxGeometry x="400" y="230" width="40" height="47" as="geometry" />
        </mxCell>
        <mxCell id="zhi4c-E4_3L_QKvFbCK9-34" value="" style="html=1;labelBackgroundColor=#ffffff;startArrow=none;startFill=0;startSize=6;endArrow=classic;endFill=1;endSize=6;jettySize=auto;orthogonalLoop=1;strokeWidth=1;dashed=1;fontSize=14;rounded=0;" parent="1" edge="1">
          <mxGeometry width="60" height="60" relative="1" as="geometry">
            <mxPoint x="420" y="280" as="sourcePoint" />
            <mxPoint x="419.5" y="330" as="targetPoint" />
          </mxGeometry>
        </mxCell>
        <mxCell id="zhi4c-E4_3L_QKvFbCK9-41" value="" style="html=1;labelBackgroundColor=#ffffff;startArrow=none;startFill=0;startSize=6;endArrow=classic;endFill=1;endSize=6;jettySize=auto;orthogonalLoop=1;strokeWidth=1;dashed=1;fontSize=14;rounded=0;" parent="1" target="zhi4c-E4_3L_QKvFbCK9-61" edge="1">
          <mxGeometry width="60" height="60" relative="1" as="geometry">
            <mxPoint x="1110" y="460" as="sourcePoint" />
            <mxPoint x="1109.5" y="510" as="targetPoint" />
          </mxGeometry>
        </mxCell>
        <mxCell id="zhi4c-E4_3L_QKvFbCK9-49" value="" style="html=1;labelBackgroundColor=#ffffff;startArrow=none;startFill=0;startSize=6;endArrow=classic;endFill=1;endSize=6;jettySize=auto;orthogonalLoop=1;strokeWidth=1;dashed=1;fontSize=14;rounded=0;" parent="1" edge="1">
          <mxGeometry width="60" height="60" relative="1" as="geometry">
            <mxPoint x="420" y="460" as="sourcePoint" />
            <mxPoint x="420" y="500" as="targetPoint" />
          </mxGeometry>
        </mxCell>
        <mxCell id="zhi4c-E4_3L_QKvFbCK9-51" value="" style="html=1;labelBackgroundColor=#ffffff;startArrow=none;startFill=0;startSize=6;endArrow=classic;endFill=1;endSize=6;jettySize=auto;orthogonalLoop=1;strokeWidth=1;dashed=1;fontSize=14;rounded=0;entryX=0;entryY=0.685;entryDx=0;entryDy=0;entryPerimeter=0;" parent="1" target="zhi4c-E4_3L_QKvFbCK9-5" edge="1">
          <mxGeometry width="60" height="60" relative="1" as="geometry">
            <mxPoint x="444" y="520" as="sourcePoint" />
            <mxPoint x="520" y="530" as="targetPoint" />
            <Array as="points">
              <mxPoint x="520" y="520" />
              <mxPoint x="520" y="470" />
              <mxPoint x="520" y="420" />
            </Array>
          </mxGeometry>
        </mxCell>
        <mxCell id="zhi4c-E4_3L_QKvFbCK9-53" value="" style="html=1;labelBackgroundColor=#ffffff;startArrow=none;startFill=0;startSize=6;endArrow=classic;endFill=1;endSize=6;jettySize=auto;orthogonalLoop=1;strokeWidth=1;dashed=1;fontSize=14;rounded=0;" parent="1" edge="1">
          <mxGeometry width="60" height="60" relative="1" as="geometry">
            <mxPoint x="680" y="520" as="sourcePoint" />
            <mxPoint x="800" y="420" as="targetPoint" />
            <Array as="points">
              <mxPoint x="760" y="520" />
              <mxPoint x="760" y="420" />
            </Array>
          </mxGeometry>
        </mxCell>
        <mxCell id="zhi4c-E4_3L_QKvFbCK9-54" value="" style="html=1;labelBackgroundColor=#ffffff;startArrow=none;startFill=0;startSize=6;endArrow=classic;endFill=1;endSize=6;jettySize=auto;orthogonalLoop=1;strokeWidth=1;dashed=1;fontSize=14;rounded=0;" parent="1" edge="1">
          <mxGeometry width="60" height="60" relative="1" as="geometry">
            <mxPoint x="910" y="520" as="sourcePoint" />
            <mxPoint x="1010" y="420" as="targetPoint" />
            <Array as="points">
              <mxPoint x="976" y="520" />
              <mxPoint x="976" y="421" />
            </Array>
          </mxGeometry>
        </mxCell>
        <mxCell id="zhi4c-E4_3L_QKvFbCK9-57" value="" style="html=1;labelBackgroundColor=#ffffff;startArrow=none;startFill=0;startSize=6;endArrow=classic;endFill=1;endSize=6;jettySize=auto;orthogonalLoop=1;strokeWidth=1;dashed=1;fontSize=14;rounded=0;" parent="1" edge="1">
          <mxGeometry width="60" height="60" relative="1" as="geometry">
            <mxPoint x="884.5" y="460" as="sourcePoint" />
            <mxPoint x="884.5" y="500" as="targetPoint" />
          </mxGeometry>
        </mxCell>
        <mxCell id="zhi4c-E4_3L_QKvFbCK9-58" value="" style="html=1;labelBackgroundColor=#ffffff;startArrow=none;startFill=0;startSize=6;endArrow=classic;endFill=1;endSize=6;jettySize=auto;orthogonalLoop=1;strokeWidth=1;dashed=1;fontSize=14;rounded=0;" parent="1" edge="1">
          <mxGeometry width="60" height="60" relative="1" as="geometry">
            <mxPoint x="650" y="460" as="sourcePoint" />
            <mxPoint x="650" y="500" as="targetPoint" />
          </mxGeometry>
        </mxCell>
        <mxCell id="zhi4c-E4_3L_QKvFbCK9-37" value="" style="sketch=0;pointerEvents=1;shadow=0;dashed=0;html=1;strokeColor=none;fillColor=#505050;labelPosition=center;verticalLabelPosition=bottom;verticalAlign=top;outlineConnect=0;align=center;shape=mxgraph.office.concepts.document_blank;container=0;" parent="1" vertex="1">
          <mxGeometry x="400" y="500" width="40" height="47" as="geometry" />
        </mxCell>
        <mxCell id="zhi4c-E4_3L_QKvFbCK9-46" value="&lt;b&gt;&lt;font style=&quot;font-size: 11px;&quot;&gt;&amp;nbsp;Use Cases&lt;/font&gt;&lt;/b&gt;" style="text;html=1;align=center;verticalAlign=middle;resizable=0;points=[];autosize=1;strokeColor=none;fillColor=none;container=0;" parent="1" vertex="1">
          <mxGeometry x="630" y="200" width="80" height="30" as="geometry" />
        </mxCell>
        <mxCell id="zhi4c-E4_3L_QKvFbCK9-47" value="&lt;div style=&quot;forced-color-adjust: none; color: rgb(0, 0, 0); font-family: Helvetica; font-style: normal; font-variant-ligatures: normal; font-variant-caps: normal; letter-spacing: normal; orphans: 2; text-align: center; text-indent: 0px; text-transform: none; widows: 2; word-spacing: 0px; -webkit-text-stroke-width: 0px; white-space: normal; background-color: rgb(251, 251, 251); text-decoration-thickness: initial; text-decoration-style: initial; text-decoration-color: initial;&quot;&gt;&lt;b style=&quot;&quot;&gt;&lt;font style=&quot;font-size: 11px;&quot;&gt;Blockchain Business Model Taxonomy&lt;/font&gt;&lt;/b&gt;&lt;/div&gt;" style="text;whiteSpace=wrap;html=1;container=0;" parent="1" vertex="1">
          <mxGeometry x="355" y="190" width="130" height="40" as="geometry" />
        </mxCell>
        <mxCell id="zhi4c-E4_3L_QKvFbCK9-48" value="&lt;div style=&quot;forced-color-adjust: none; color: rgb(0, 0, 0); font-family: Helvetica; font-style: normal; font-variant-ligatures: normal; font-variant-caps: normal; letter-spacing: normal; orphans: 2; text-align: center; text-indent: 0px; text-transform: none; widows: 2; word-spacing: 0px; -webkit-text-stroke-width: 0px; white-space: normal; background-color: rgb(251, 251, 251); text-decoration-thickness: initial; text-decoration-style: initial; text-decoration-color: initial;&quot;&gt;&lt;b style=&quot;&quot;&gt;&lt;font style=&quot;font-size: 11px;&quot;&gt;Blockchain Business Model Taxonomy&lt;/font&gt;&lt;/b&gt;&lt;/div&gt;" style="text;whiteSpace=wrap;html=1;container=0;" parent="1" vertex="1">
          <mxGeometry x="510" y="190" width="130" height="40" as="geometry" />
        </mxCell>
        <mxCell id="zhi4c-E4_3L_QKvFbCK9-50" value="&lt;div style=&quot;forced-color-adjust: none; color: rgb(0, 0, 0); font-family: Helvetica; font-style: normal; font-variant-ligatures: normal; font-variant-caps: normal; letter-spacing: normal; orphans: 2; text-align: center; text-indent: 0px; text-transform: none; widows: 2; word-spacing: 0px; -webkit-text-stroke-width: 0px; white-space: normal; background-color: rgb(251, 251, 251); text-decoration-thickness: initial; text-decoration-style: initial; text-decoration-color: initial;&quot;&gt;&lt;span style=&quot;font-size: 11px;&quot;&gt;&lt;b&gt;Information Mapped to Taxonomy Dimensions&lt;/b&gt;&lt;/span&gt;&lt;/div&gt;" style="text;whiteSpace=wrap;html=1;container=0;" parent="1" vertex="1">
          <mxGeometry x="355" y="547" width="130" height="40" as="geometry" />
        </mxCell>
        <mxCell id="zhi4c-E4_3L_QKvFbCK9-52" value="" style="sketch=0;pointerEvents=1;shadow=0;dashed=0;html=1;strokeColor=none;fillColor=#505050;labelPosition=center;verticalLabelPosition=bottom;verticalAlign=top;outlineConnect=0;align=center;shape=mxgraph.office.concepts.document_blank;container=0;" parent="1" vertex="1">
          <mxGeometry x="640" y="500" width="40" height="47" as="geometry" />
        </mxCell>
        <mxCell id="zhi4c-E4_3L_QKvFbCK9-55" value="" style="sketch=0;pointerEvents=1;shadow=0;dashed=0;html=1;strokeColor=none;fillColor=#505050;labelPosition=center;verticalLabelPosition=bottom;verticalAlign=top;outlineConnect=0;align=center;shape=mxgraph.office.concepts.document_blank;container=0;" parent="1" vertex="1">
          <mxGeometry x="865" y="500" width="40" height="47" as="geometry" />
        </mxCell>
        <mxCell id="zhi4c-E4_3L_QKvFbCK9-59" value="&lt;div style=&quot;forced-color-adjust: none; color: rgb(0, 0, 0); font-family: Helvetica; font-style: normal; font-variant-ligatures: normal; font-variant-caps: normal; letter-spacing: normal; orphans: 2; text-align: center; text-indent: 0px; text-transform: none; widows: 2; word-spacing: 0px; -webkit-text-stroke-width: 0px; white-space: normal; background-color: rgb(251, 251, 251); text-decoration-thickness: initial; text-decoration-style: initial; text-decoration-color: initial;&quot;&gt;&lt;b style=&quot;&quot;&gt;&lt;font style=&quot;font-size: 11px;&quot;&gt;Missing information of literature and use cases&lt;/font&gt;&lt;/b&gt;&lt;/div&gt;&lt;div style=&quot;forced-color-adjust: none; color: rgb(0, 0, 0); font-family: Helvetica; font-style: normal; font-variant-ligatures: normal; font-variant-caps: normal; letter-spacing: normal; orphans: 2; text-align: center; text-indent: 0px; text-transform: none; widows: 2; word-spacing: 0px; -webkit-text-stroke-width: 0px; white-space: normal; background-color: rgb(251, 251, 251); text-decoration-thickness: initial; text-decoration-style: initial; text-decoration-color: initial;&quot;&gt;&lt;b style=&quot;&quot;&gt;&lt;font style=&quot;font-size: 11px;&quot;&gt;concering agri-food systems&lt;/font&gt;&lt;/b&gt;&lt;/div&gt;" style="text;whiteSpace=wrap;html=1;container=0;" parent="1" vertex="1">
          <mxGeometry x="582.5" y="547" width="155" height="63" as="geometry" />
        </mxCell>
        <mxCell id="zhi4c-E4_3L_QKvFbCK9-60" value="&lt;div style=&quot;forced-color-adjust: none; color: rgb(0, 0, 0); font-family: Helvetica; font-style: normal; font-variant-ligatures: normal; font-variant-caps: normal; letter-spacing: normal; orphans: 2; text-align: center; text-indent: 0px; text-transform: none; widows: 2; word-spacing: 0px; -webkit-text-stroke-width: 0px; white-space: normal; background-color: rgb(251, 251, 251); text-decoration-thickness: initial; text-decoration-style: initial; text-decoration-color: initial;&quot;&gt;&lt;span style=&quot;font-size: 11px;&quot;&gt;&lt;b&gt;Questionnaire to collect the missing information&lt;/b&gt;&lt;/span&gt;&lt;/div&gt;" style="text;whiteSpace=wrap;html=1;container=0;" parent="1" vertex="1">
          <mxGeometry x="820" y="547" width="130" height="40" as="geometry" />
        </mxCell>
        <mxCell id="zhi4c-E4_3L_QKvFbCK9-61" value="" style="sketch=0;pointerEvents=1;shadow=0;dashed=0;html=1;strokeColor=none;fillColor=#505050;labelPosition=center;verticalLabelPosition=bottom;verticalAlign=top;outlineConnect=0;align=center;shape=mxgraph.office.concepts.document_blank;container=0;" parent="1" vertex="1">
          <mxGeometry x="1090" y="500" width="40" height="47" as="geometry" />
        </mxCell>
        <mxCell id="zhi4c-E4_3L_QKvFbCK9-63" value="&lt;div style=&quot;forced-color-adjust: none; color: rgb(0, 0, 0); font-family: Helvetica; font-style: normal; font-variant-ligatures: normal; font-variant-caps: normal; letter-spacing: normal; orphans: 2; text-align: center; text-indent: 0px; text-transform: none; widows: 2; word-spacing: 0px; -webkit-text-stroke-width: 0px; white-space: normal; background-color: rgb(251, 251, 251); text-decoration-thickness: initial; text-decoration-style: initial; text-decoration-color: initial;&quot;&gt;&lt;b&gt;&lt;font style=&quot;font-size: 11px;&quot;&gt;Responsible Stakeholders involved in agri-food supply chain&lt;/font&gt;&lt;/b&gt;&lt;/div&gt;" style="text;whiteSpace=wrap;html=1;container=0;" parent="1" vertex="1">
          <mxGeometry x="1032.5" y="547" width="155" height="63" as="geometry" />
        </mxCell>
        <mxCell id="7a84cebc1def654-1" value="" style="shape=mxgraph.bpmn.shape;html=1;verticalLabelPosition=bottom;labelBackgroundColor=#ffffff;verticalAlign=top;perimeter=ellipsePerimeter;outline=standard;symbol=general;container=0;" parent="1" vertex="1">
          <mxGeometry x="240" y="370" width="50" height="50" as="geometry" />
        </mxCell>
        <mxCell id="7a84cebc1def654-26" value="" style="shape=mxgraph.bpmn.shape;html=1;verticalLabelPosition=bottom;labelBackgroundColor=#ffffff;verticalAlign=top;perimeter=ellipsePerimeter;outline=end;symbol=general;container=0;" parent="1" vertex="1">
          <mxGeometry x="1210" y="370.00000000000006" width="50" height="50" as="geometry" />
        </mxCell>
        <mxCell id="zhi4c-E4_3L_QKvFbCK9-14" value="" style="edgeStyle=orthogonalEdgeStyle;rounded=0;orthogonalLoop=1;jettySize=auto;html=1;" parent="1" source="7a84cebc1def654-29" target="zhi4c-E4_3L_QKvFbCK9-5" edge="1">
          <mxGeometry relative="1" as="geometry" />
        </mxCell>
        <mxCell id="7a84cebc1def654-29" value="&lt;div&gt;&lt;/div&gt;" style="html=1;whiteSpace=wrap;rounded=1;container=0;" parent="1" vertex="1">
          <mxGeometry x="340" y="330" width="170" height="130" as="geometry" />
        </mxCell>
        <mxCell id="7a84cebc1def654-36" style="edgeStyle=orthogonalEdgeStyle;rounded=0;html=1;jettySize=auto;orthogonalLoop=1;entryX=0;entryY=0.5;entryDx=0;entryDy=0;" parent="1" source="7a84cebc1def654-1" target="7a84cebc1def654-29" edge="1">
          <mxGeometry relative="1" as="geometry">
            <mxPoint x="360" y="370" as="targetPoint" />
          </mxGeometry>
        </mxCell>
        <mxCell id="5uqOLYomGBAge1CMh9Sh-1" value="&lt;b&gt;Start&lt;/b&gt;" style="text;html=1;align=center;verticalAlign=middle;resizable=0;points=[];autosize=1;strokeColor=none;fillColor=none;container=0;" parent="1" vertex="1">
          <mxGeometry x="240" y="420" width="50" height="30" as="geometry" />
        </mxCell>
        <mxCell id="zhi4c-E4_3L_QKvFbCK9-5" value="&lt;div&gt;&lt;br&gt;&lt;/div&gt;" style="html=1;whiteSpace=wrap;rounded=1;container=0;" parent="1" vertex="1">
          <mxGeometry x="560" y="330" width="180" height="130" as="geometry" />
        </mxCell>
        <mxCell id="zhi4c-E4_3L_QKvFbCK9-16" value="" style="edgeStyle=orthogonalEdgeStyle;rounded=0;orthogonalLoop=1;jettySize=auto;html=1;" parent="1" source="zhi4c-E4_3L_QKvFbCK9-8" target="zhi4c-E4_3L_QKvFbCK9-11" edge="1">
          <mxGeometry relative="1" as="geometry" />
        </mxCell>
        <mxCell id="zhi4c-E4_3L_QKvFbCK9-8" value="&lt;div&gt;&lt;br&gt;&lt;/div&gt;" style="html=1;whiteSpace=wrap;rounded=1;container=0;" parent="1" vertex="1">
          <mxGeometry x="800" y="330" width="165" height="130" as="geometry" />
        </mxCell>
        <mxCell id="zhi4c-E4_3L_QKvFbCK9-17" value="" style="edgeStyle=orthogonalEdgeStyle;rounded=0;orthogonalLoop=1;jettySize=auto;html=1;" parent="1" source="zhi4c-E4_3L_QKvFbCK9-11" target="7a84cebc1def654-26" edge="1">
          <mxGeometry relative="1" as="geometry" />
        </mxCell>
        <mxCell id="zhi4c-E4_3L_QKvFbCK9-11" value="&lt;div&gt;&lt;/div&gt;" style="html=1;whiteSpace=wrap;rounded=1;container=0;fillColor=#ede8e8;" parent="1" vertex="1">
          <mxGeometry x="1010" y="330" width="160" height="130" as="geometry" />
        </mxCell>
        <mxCell id="zhi4c-E4_3L_QKvFbCK9-18" value="&lt;b&gt;End&lt;/b&gt;" style="text;html=1;align=center;verticalAlign=middle;resizable=0;points=[];autosize=1;strokeColor=none;fillColor=none;container=0;" parent="1" vertex="1">
          <mxGeometry x="1210" y="420" width="50" height="30" as="geometry" />
        </mxCell>
        <mxCell id="zhi4c-E4_3L_QKvFbCK9-25" value="" style="edgeStyle=orthogonalEdgeStyle;rounded=0;orthogonalLoop=1;jettySize=auto;html=1;" parent="1" edge="1">
          <mxGeometry relative="1" as="geometry">
            <mxPoint x="740" y="394.5" as="sourcePoint" />
            <mxPoint x="800" y="395" as="targetPoint" />
          </mxGeometry>
        </mxCell>
        <mxCell id="7a84cebc1def654-30" value="" style="html=1;shape=plus;container=0;" parent="1" vertex="1">
          <mxGeometry x="418" y="446" width="14" height="14" as="geometry">
            <mxPoint x="-7" y="-14" as="offset" />
          </mxGeometry>
        </mxCell>
        <mxCell id="zhi4c-E4_3L_QKvFbCK9-4" value="RQ1" style="rounded=0;whiteSpace=wrap;html=1;fillColor=#f0a30a;fontColor=#000000;strokeColor=#BD7000;container=0;" parent="1" vertex="1">
          <mxGeometry x="446.67" y="320" width="42.67" height="20" as="geometry" />
        </mxCell>
        <mxCell id="zhi4c-E4_3L_QKvFbCK9-20" value="&lt;div&gt;&lt;b&gt;Phase 1&lt;/b&gt;&amp;nbsp;&lt;/div&gt;&lt;div&gt;&lt;br&gt;&lt;/div&gt;&lt;b&gt;&amp;nbsp;Identifying the current-state-of-art of blockchain business models&lt;/b&gt;" style="text;html=1;align=center;verticalAlign=middle;whiteSpace=wrap;rounded=0;container=0;" parent="1" vertex="1">
          <mxGeometry x="340" y="351.6666666666667" width="170" height="86.66666666666666" as="geometry" />
        </mxCell>
        <mxCell id="zhi4c-E4_3L_QKvFbCK9-6" value="" style="html=1;shape=plus;container=0;" parent="1" vertex="1">
          <mxGeometry x="643" y="446" width="14" height="14" as="geometry">
            <mxPoint x="-7" y="-14" as="offset" />
          </mxGeometry>
        </mxCell>
        <mxCell id="zhi4c-E4_3L_QKvFbCK9-7" value="RQ2" style="rounded=0;whiteSpace=wrap;html=1;fillColor=#f0a30a;fontColor=#000000;strokeColor=#BD7000;container=0;" parent="1" vertex="1">
          <mxGeometry x="680" y="320" width="48" height="21.82" as="geometry" />
        </mxCell>
        <mxCell id="zhi4c-E4_3L_QKvFbCK9-19" value="&lt;div&gt;&lt;b&gt;Phase 2&amp;nbsp;&lt;/b&gt;&lt;/div&gt;&lt;div&gt;&lt;b&gt;&lt;br&gt;&lt;/b&gt;&lt;/div&gt;&lt;b&gt;Identifying what kind of information is available to the public concerning blockchain business models&lt;/b&gt;" style="text;html=1;align=center;verticalAlign=middle;whiteSpace=wrap;rounded=0;container=0;" parent="1" vertex="1">
          <mxGeometry x="565" y="351.6666666666667" width="170" height="86.66666666666666" as="geometry" />
        </mxCell>
        <mxCell id="zhi4c-E4_3L_QKvFbCK9-9" value="" style="html=1;shape=plus;container=0;" parent="1" vertex="1">
          <mxGeometry x="875.5" y="446" width="14" height="14" as="geometry">
            <mxPoint x="-7" y="-14" as="offset" />
          </mxGeometry>
        </mxCell>
        <mxCell id="zhi4c-E4_3L_QKvFbCK9-10" value="RQ3" style="rounded=0;whiteSpace=wrap;html=1;fillColor=#f0a30a;fontColor=#000000;strokeColor=#BD7000;container=0;" parent="1" vertex="1">
          <mxGeometry x="906.67" y="320" width="42.67" height="21.82" as="geometry" />
        </mxCell>
        <mxCell id="zhi4c-E4_3L_QKvFbCK9-22" value="&lt;div&gt;&lt;b&gt;Phase 3&lt;/b&gt;&amp;nbsp;&lt;/div&gt;&lt;div&gt;&lt;br&gt;&lt;/div&gt;&lt;b&gt;Designing&amp;nbsp; a qualitative research method to address the lack of information identified in RQ2&lt;/b&gt;" style="text;html=1;align=center;verticalAlign=middle;whiteSpace=wrap;rounded=0;container=0;" parent="1" vertex="1">
          <mxGeometry x="795" y="349.7826086956522" width="170" height="90.43478260869566" as="geometry" />
        </mxCell>
        <mxCell id="zhi4c-E4_3L_QKvFbCK9-12" value="" style="html=1;shape=plus;container=0;" parent="1" vertex="1">
          <mxGeometry x="1083" y="446" width="14" height="14" as="geometry">
            <mxPoint x="-7" y="-14" as="offset" />
          </mxGeometry>
        </mxCell>
        <mxCell id="zhi4c-E4_3L_QKvFbCK9-13" value="RQ4" style="rounded=0;whiteSpace=wrap;html=1;fillColor=#f0a30a;fontColor=#000000;strokeColor=#BD7000;container=0;" parent="1" vertex="1">
          <mxGeometry x="1110" y="320" width="40" height="21.82" as="geometry" />
        </mxCell>
        <mxCell id="zhi4c-E4_3L_QKvFbCK9-21" value="&lt;div&gt;&lt;b&gt;Phase 4&lt;/b&gt;&lt;/div&gt;&lt;div&gt;&lt;br&gt;&lt;/div&gt;&lt;b&gt;Identifying the stakeholders/roles that are most relevant to answer the questionnaire&lt;/b&gt;" style="text;html=1;align=center;verticalAlign=middle;whiteSpace=wrap;rounded=0;container=0;fillColor=#ede8e8;" parent="1" vertex="1">
          <mxGeometry x="1005" y="347.73" width="165" height="94.55" as="geometry" />
        </mxCell>
        <mxCell id="zhi4c-E4_3L_QKvFbCK9-36" value="" style="sketch=0;pointerEvents=1;shadow=0;dashed=0;html=1;strokeColor=none;fillColor=#505050;labelPosition=center;verticalLabelPosition=bottom;verticalAlign=top;outlineConnect=0;align=center;shape=mxgraph.office.concepts.document_blank;container=0;" parent="1" vertex="1">
          <mxGeometry x="580" y="230" width="40" height="47" as="geometry" />
        </mxCell>
        <mxCell id="zhi4c-E4_3L_QKvFbCK9-40" value="" style="html=1;labelBackgroundColor=#ffffff;startArrow=none;startFill=0;startSize=6;endArrow=classic;endFill=1;endSize=6;jettySize=auto;orthogonalLoop=1;strokeWidth=1;dashed=1;fontSize=14;rounded=0;" parent="1" edge="1">
          <mxGeometry width="60" height="60" relative="1" as="geometry">
            <mxPoint x="600" y="277" as="sourcePoint" />
            <mxPoint x="599.5" y="327" as="targetPoint" />
          </mxGeometry>
        </mxCell>
        <mxCell id="zhi4c-E4_3L_QKvFbCK9-44" value="" style="sketch=0;pointerEvents=1;shadow=0;dashed=0;html=1;strokeColor=none;fillColor=#505050;labelPosition=center;verticalLabelPosition=bottom;verticalAlign=top;outlineConnect=0;align=center;shape=mxgraph.office.concepts.document_blank;container=0;" parent="1" vertex="1">
          <mxGeometry x="650" y="230" width="40" height="47" as="geometry" />
        </mxCell>
        <mxCell id="zhi4c-E4_3L_QKvFbCK9-45" value="" style="html=1;labelBackgroundColor=#ffffff;startArrow=none;startFill=0;startSize=6;endArrow=classic;endFill=1;endSize=6;jettySize=auto;orthogonalLoop=1;strokeWidth=1;dashed=1;fontSize=14;rounded=0;" parent="1" edge="1">
          <mxGeometry width="60" height="60" relative="1" as="geometry">
            <mxPoint x="670" y="277" as="sourcePoint" />
            <mxPoint x="669.5" y="327" as="targetPoint" />
          </mxGeometry>
        </mxCell>
      </root>
    </mxGraphModel>
  </diagram>
</mxfile>
